<?xml version="1.0" standalone="no"?>
<!DOCTYPE svg PUBLIC "-//W3C//DTD SVG 20010904//EN"
 "http://www.w3.org/TR/2001/REC-SVG-20010904/DTD/svg10.dtd">
<svg version="1.0" xmlns="http://www.w3.org/2000/svg"
 width="1024.000000pt" height="1024.000000pt" viewBox="0 0 1024.000000 1024.000000"
 preserveAspectRatio="xMidYMid meet">

<g transform="translate(0.000000,1024.000000) scale(0.100000,-0.100000)"
fill="#000000" stroke="none">
<path d="M1488 6403 c6 -2 18 -2 25 0 6 3 1 5 -13 5 -14 0 -19 -2 -12 -5z"/>
<path d="M1705 6400 c99 -4 181 -7 183 -8 1 -1 11 -17 22 -34 22 -36 26 -33 9
6 -18 39 -58 46 -233 44 l-161 -2 180 -6z"/>
<path d="M1430 6385 c-7 -9 -10 -18 -6 -22 3 -3 6 -1 6 6 0 6 10 16 23 21 15
6 17 9 6 9 -9 1 -22 -6 -29 -14z"/>
<path d="M1415 6316 c5 -48 30 -76 64 -75 l26 2 -27 4 c-33 5 -45 19 -58 69
l-10 39 5 -39z"/>
<path d="M1931 6305 c0 -11 4 -27 9 -35 9 -13 10 -13 9 0 0 8 -4 24 -9 35 l-9
20 0 -20z"/>
<path d="M5895 6255 c-17 -17 -25 -35 -25 -60 0 -47 14 -71 51 -91 62 -31 129
11 129 80 0 23 -6 48 -13 57 -34 45 -105 52 -142 14z"/>
<path d="M4502 6255 c-187 -53 -312 -235 -312 -455 1 -137 38 -234 125 -328
120 -129 297 -172 470 -114 l57 20 60 -74 c34 -41 64 -74 68 -74 7 0 130 100
130 105 0 1 -26 35 -59 74 l-59 73 34 50 c53 78 69 144 69 284 0 119 0 121
-38 197 -50 101 -124 177 -213 219 -60 28 -79 32 -173 35 -72 2 -123 -2 -159
-12z m219 -160 c156 -55 229 -246 161 -420 l-19 -48 -48 64 c-27 35 -50 66
-52 68 -3 4 -111 -77 -119 -90 -3 -5 18 -37 45 -71 34 -42 47 -66 41 -72 -6
-6 -44 -12 -85 -14 -66 -4 -79 -1 -125 24 -163 89 -191 367 -51 504 26 25 62
51 81 57 51 16 121 15 171 -2z"/>
<path d="M6820 5820 l0 -450 80 0 80 0 0 160 c0 88 4 160 8 160 5 0 58 -72
118 -159 l109 -159 100 -4 c55 -1 102 -2 103 -1 2 1 -14 25 -35 55 -22 29 -80
114 -130 188 l-90 136 124 137 124 137 -98 0 -98 -1 -114 -139 c-63 -77 -116
-140 -119 -140 -2 0 -2 118 0 263 l3 262 -82 3 -83 3 0 -451z"/>
<path d="M1583 6243 c37 -2 96 -2 130 0 34 2 4 3 -68 3 -71 0 -99 -1 -62 -3z"/>
<path d="M1781 6235 c1 -19 18 -51 18 -35 0 8 -4 22 -9 30 -5 8 -9 11 -9 5z"/>
<path d="M1964 6195 c16 -69 28 -107 31 -103 5 5 -25 121 -32 128 -3 3 -3 -8
1 -25z"/>
<path d="M1803 6165 c3 -11 11 -42 18 -68 6 -26 14 -46 16 -43 5 5 -23 116
-33 124 -3 4 -4 -2 -1 -13z"/>
<path d="M2128 6073 c29 -2 74 -2 100 0 26 2 2 3 -53 3 -55 0 -76 -1 -47 -3z"/>
<path d="M2288 6073 c7 -3 16 -2 19 1 4 3 -2 6 -13 5 -11 0 -14 -3 -6 -6z"/>
<path d="M2498 6073 c90 -2 234 -2 320 0 86 1 13 3 -163 3 -176 0 -247 -2
-157 -3z"/>
<path d="M3123 6073 c31 -2 83 -2 115 0 31 2 5 3 -58 3 -63 0 -89 -1 -57 -3z"/>
<path d="M3402 6073 c59 -2 158 -2 220 0 62 1 14 3 -107 3 -121 0 -172 -2
-113 -3z"/>
<path d="M3766 6066 c19 -8 36 -26 42 -43 9 -24 11 -25 11 -6 1 24 -42 63 -68
63 -9 -1 -2 -7 15 -14z"/>
<path d="M1845 6010 c10 -52 28 -111 32 -107 4 5 -27 130 -34 137 -3 3 -2 -11
2 -30z"/>
<path d="M6333 6022 c-101 -36 -171 -114 -194 -217 -6 -29 -10 -92 -7 -141 7
-145 64 -235 182 -290 42 -20 67 -24 141 -24 98 0 144 15 202 64 35 30 83 118
83 153 0 22 -3 23 -84 23 -73 0 -85 -2 -90 -18 -4 -10 -20 -32 -37 -48 -25
-24 -39 -29 -79 -29 -90 0 -140 61 -148 181 -8 132 43 214 134 214 61 0 100
-22 115 -65 l13 -36 88 2 c49 1 90 4 92 8 9 16 -27 101 -60 139 -54 63 -121
94 -219 99 -61 3 -92 -1 -132 -15z"/>
<path d="M5184 6005 c-4 -8 -4 -129 -2 -268 4 -235 5 -255 26 -294 63 -120
245 -138 355 -35 l27 26 0 -37 0 -37 85 0 84 0 1 330 0 330 -80 0 -80 0 -1
-167 c-1 -234 -7 -276 -47 -316 -29 -28 -39 -32 -87 -32 -46 0 -59 4 -82 28
l-28 27 -3 229 -3 228 -80 2 c-63 1 -81 -1 -85 -14z"/>
<path d="M5878 6010 c-1 -5 -2 -154 0 -330 l3 -320 79 0 80 0 0 330 0 330 -79
0 c-44 0 -81 -4 -83 -10z"/>
<path d="M3791 5909 c-7 -22 -11 -43 -8 -45 2 -2 9 14 16 37 7 22 11 43 8 45
-2 2 -9 -14 -16 -37z"/>
<path d="M1124 5920 c-29 -12 -54 -49 -54 -81 0 -26 34 -79 50 -79 5 0 -2 11
-15 25 -30 29 -32 74 -6 106 19 24 22 24 268 29 l248 6 -235 1 c-129 1 -245
-2 -256 -7z"/>
<path d="M1637 5905 c43 -30 37 -110 -10 -133 -18 -9 -19 -11 -4 -11 26 -1 59
58 52 93 -6 32 -31 66 -49 66 -6 0 -1 -7 11 -15z"/>
<path d="M1891 5834 c0 -11 3 -14 6 -6 3 7 2 16 -1 19 -3 4 -6 -2 -5 -13z"/>
<path d="M3757 5783 c-9 -36 -16 -68 -13 -70 2 -2 12 26 21 62 10 36 16 67 14
70 -3 2 -12 -26 -22 -62z"/>
<path d="M1911 5764 c0 -11 3 -14 6 -6 3 7 2 16 -1 19 -3 4 -6 -2 -5 -13z"/>
<path d="M1213 5753 c37 -2 97 -2 135 0 37 2 6 3 -68 3 -74 0 -105 -1 -67 -3z"/>
<path d="M1473 5753 c26 -2 67 -2 90 0 23 2 2 3 -48 3 -49 0 -68 -1 -42 -3z"/>
<path d="M1920 5735 c0 -17 63 -245 67 -241 3 2 -10 57 -27 123 -29 108 -40
140 -40 118z"/>
<path d="M2573 5733 c136 -2 358 -2 495 0 136 1 24 2 -248 2 -272 0 -384 -1
-247 -2z"/>
<path d="M2281 5704 c-27 -34 -27 -75 0 -105 l21 -24 -16 25 c-23 36 -20 77 9
105 13 14 20 25 15 25 -5 0 -18 -12 -29 -26z"/>
<path d="M3330 5723 c20 -9 42 -65 36 -92 -5 -26 -5 -26 6 -2 10 19 9 29 -7
59 -11 20 -26 37 -33 38 -7 1 -8 0 -2 -3z"/>
<path d="M3731 5684 c0 -11 3 -14 6 -6 3 7 2 16 -1 19 -3 4 -6 -2 -5 -13z"/>
<path d="M3721 5644 c0 -11 3 -14 6 -6 3 7 2 16 -1 19 -3 4 -6 -2 -5 -13z"/>
<path d="M3326 5585 c-11 -8 -15 -15 -9 -15 6 0 16 7 23 15 16 19 11 19 -14 0z"/>
<path d="M3692 5551 c-7 -21 -12 -45 -11 -52 0 -8 7 8 15 35 9 26 13 50 11 52
-2 2 -9 -13 -15 -35z"/>
<path d="M2568 5563 c133 -2 351 -2 485 0 133 1 24 2 -243 2 -267 0 -376 -1
-242 -2z"/>
<path d="M1730 5479 c42 -12 70 -42 70 -76 0 -27 -17 -64 -34 -75 -6 -4 -130
-9 -276 -10 l-265 -3 255 -3 c140 -1 265 0 277 3 26 6 53 52 53 89 0 36 -39
75 -80 81 l-35 5 35 -11z"/>
<path d="M1187 5462 c-10 -10 -17 -27 -16 -38 1 -14 3 -13 8 6 4 14 18 30 31
37 16 8 19 13 9 13 -9 0 -23 -8 -32 -18z"/>
<path d="M1307 5473 c18 -2 50 -2 70 0 21 2 7 4 -32 4 -38 0 -55 -2 -38 -4z"/>
<path d="M1428 5473 c7 -3 16 -2 19 1 4 3 -2 6 -13 5 -11 0 -14 -3 -6 -6z"/>
<path d="M1588 5473 c12 -2 30 -2 40 0 9 3 -1 5 -23 4 -22 0 -30 -2 -17 -4z"/>
<path d="M1996 5450 c4 -19 11 -44 15 -55 6 -14 7 -9 3 15 -4 19 -11 44 -15
55 -6 14 -7 9 -3 -15z"/>
<path d="M3666 5454 c-4 -14 -5 -28 -3 -31 3 -2 8 8 11 23 4 14 5 28 3 31 -3
2 -8 -8 -11 -23z"/>
<path d="M3646 5384 c-4 -14 -5 -28 -3 -31 3 -2 8 8 11 23 4 14 5 28 3 31 -3
2 -8 -8 -11 -23z"/>
<path d="M1171 5373 c12 -32 28 -53 40 -53 5 0 0 9 -11 20 -11 11 -20 26 -20
34 0 8 -4 18 -10 21 -6 4 -6 -4 1 -22z"/>
<path d="M2027 5340 c3 -19 12 -53 19 -75 13 -38 13 -38 7 -5 -3 19 -12 53
-19 75 -13 38 -13 38 -7 5z"/>
<path d="M2518 5363 c12 -2 30 -2 40 0 9 3 -1 5 -23 4 -22 0 -30 -2 -17 -4z"/>
<path d="M3155 5363 c11 -3 30 -14 43 -26 12 -11 22 -16 22 -10 0 15 -46 43
-67 42 -15 -1 -15 -2 2 -6z"/>
<path d="M2466 5338 c-8 -13 -17 -34 -20 -48 -4 -16 0 -12 10 10 9 19 21 41
26 48 6 6 8 12 4 12 -3 0 -12 -10 -20 -22z"/>
<path d="M3621 5294 c-7 -25 -10 -48 -8 -51 3 -2 10 17 16 43 7 25 10 48 8 51
-3 2 -10 -17 -16 -43z"/>
<path d="M3220 5282 c0 -33 -24 -70 -54 -82 -15 -6 -17 -9 -4 -9 25 -1 68 56
68 90 0 16 -2 29 -5 29 -3 0 -5 -12 -5 -28z"/>
<path d="M2450 5252 c0 -17 45 -62 62 -62 7 1 2 7 -11 14 -13 7 -30 24 -37 37
-7 13 -13 18 -14 11z"/>
<path d="M3561 5076 c-37 -134 -47 -160 -73 -181 -16 -14 -26 -25 -21 -25 5 0
21 12 36 28 19 20 36 65 67 171 22 80 39 149 37 154 -1 5 -22 -62 -46 -147z"/>
<path d="M2060 5216 c0 -17 43 -176 47 -173 4 5 -36 169 -43 176 -2 2 -4 1 -4
-3z"/>
<path d="M2583 5183 c20 -2 54 -2 75 0 20 2 3 4 -38 4 -41 0 -58 -2 -37 -4z"/>
<path d="M2713 5183 c9 -2 23 -2 30 0 6 3 -1 5 -18 5 -16 0 -22 -2 -12 -5z"/>
<path d="M2768 5183 c6 -2 18 -2 25 0 6 3 1 5 -13 5 -14 0 -19 -2 -12 -5z"/>
<path d="M2838 5183 c18 -2 45 -2 60 0 15 2 0 4 -33 4 -33 0 -45 -2 -27 -4z"/>
<path d="M2998 5183 c6 -2 18 -2 25 0 6 3 1 5 -13 5 -14 0 -19 -2 -12 -5z"/>
<path d="M4083 5161 c-116 -43 -196 -127 -239 -249 -46 -134 -41 -281 16 -399
42 -88 90 -137 178 -180 72 -36 81 -38 171 -38 83 0 104 4 154 27 110 52 182
130 212 233 l14 45 -89 0 -90 0 -15 -37 c-33 -78 -92 -115 -186 -116 -164 -1
-259 184 -204 397 33 128 113 192 229 184 76 -5 130 -39 155 -99 l16 -39 88 0
87 0 -6 28 c-23 97 -94 186 -183 229 -76 37 -228 44 -308 14z"/>
<path d="M1458 5043 c7 -3 16 -2 19 1 4 3 -2 6 -13 5 -11 0 -14 -3 -6 -6z"/>
<path d="M1543 5043 c9 -2 25 -2 35 0 9 3 1 5 -18 5 -19 0 -27 -2 -17 -5z"/>
<path d="M1406 5018 c-23 -32 -20 -90 4 -116 12 -12 26 -22 32 -22 6 0 -1 9
-16 21 -33 26 -37 88 -6 119 11 11 16 20 11 20 -6 0 -17 -10 -25 -22z"/>
<path d="M1850 5033 c31 -6 60 -31 61 -52 0 -11 2 -12 6 -3 8 21 -37 62 -66
61 l-26 -2 25 -4z"/>
<path d="M2123 4965 c6 -19 12 -33 14 -32 6 7 -9 67 -17 67 -5 0 -3 -16 3 -35z"/>
<path d="M4877 4950 c-122 -31 -203 -122 -228 -256 -30 -161 44 -315 180 -377
58 -27 187 -29 243 -5 53 24 126 94 156 153 25 45 27 60 27 160 0 91 -4 118
-21 156 -28 60 -87 119 -146 147 -53 25 -156 35 -211 22z m164 -166 c59 -52
77 -180 38 -260 -52 -110 -203 -113 -255 -6 -24 50 -24 163 1 216 27 56 67 78
137 73 39 -2 64 -10 79 -23z"/>
<path d="M5595 4951 c-44 -11 -71 -27 -94 -57 l-21 -27 0 37 0 36 -81 0 -82 0
7 -61 c3 -34 6 -176 6 -315 l0 -254 75 0 75 0 1 33 c1 17 1 102 -1 187 -2 174
7 229 47 259 28 23 82 28 114 11 43 -24 49 -57 49 -280 l0 -210 75 0 75 0 0
78 c2 248 3 291 10 332 14 79 92 116 155 74 37 -24 45 -72 45 -287 l0 -198 78
3 77 3 0 245 c0 264 -3 277 -59 338 -70 78 -221 79 -294 3 l-36 -38 -24 29
c-13 16 -36 35 -51 42 -34 18 -108 27 -146 17z"/>
<path d="M6535 4946 c-22 -9 -52 -29 -67 -46 l-28 -30 0 35 0 35 -75 0 -75 0
0 -314 0 -315 78 2 77 2 5 215 c3 118 9 223 14 233 11 24 58 47 95 47 17 0 42
-10 58 -24 l28 -24 5 -224 5 -223 77 -3 77 -3 3 221 3 222 33 29 c41 37 89 39
128 6 36 -31 44 -91 43 -302 l-1 -170 77 -3 77 -3 -4 260 -3 259 -30 43 c-44
62 -85 83 -164 83 -75 0 -140 -27 -168 -70 l-16 -26 -25 31 c-13 17 -36 38
-52 46 -43 22 -129 28 -175 11z"/>
<path d="M7473 4950 c-89 -18 -159 -73 -204 -160 -21 -40 -24 -58 -24 -165 0
-105 3 -125 23 -162 35 -66 79 -110 140 -140 48 -24 69 -28 137 -27 67 0 89 4
131 26 28 15 63 41 78 59 25 29 56 91 56 110 0 5 -36 9 -80 9 -72 0 -81 -2
-95 -23 -20 -31 -56 -47 -105 -47 -73 0 -118 40 -135 118 l-7 32 79 2 c43 1
89 3 103 4 14 1 76 3 139 3 l114 1 -7 61 c-15 126 -79 235 -166 279 -44 22
-122 31 -177 20z m107 -140 c26 -14 58 -54 65 -82 l7 -28 -126 0 c-85 0 -126
4 -126 11 0 6 7 26 16 44 30 64 100 87 164 55z"/>
<path d="M8161 4950 c-52 -12 -81 -31 -107 -70 l-24 -35 0 48 0 47 -77 0 -78
0 3 -315 3 -315 74 0 c65 0 75 2 75 18 0 264 5 328 30 376 33 66 68 90 133 92
l52 2 3 76 c2 61 0 76 -12 76 -8 0 -20 2 -28 4 -7 2 -28 0 -47 -4z"/>
<path d="M8480 4951 c-88 -19 -163 -81 -202 -166 -19 -42 -23 -67 -23 -155 0
-92 3 -112 26 -160 36 -77 71 -115 137 -147 49 -24 69 -28 143 -28 74 1 91 4
131 28 70 41 113 99 133 180 l7 27 -86 0 c-68 0 -86 -3 -86 -14 0 -30 -50 -74
-90 -81 -114 -19 -186 111 -151 270 17 76 56 110 126 110 57 0 89 -19 106 -62
8 -21 15 -23 95 -23 l86 0 -7 28 c-19 76 -68 137 -138 171 -47 22 -153 34
-207 22z"/>
<path d="M9090 4944 c-93 -25 -139 -65 -191 -164 -21 -39 -24 -59 -24 -150 1
-128 22 -186 95 -254 78 -73 168 -98 272 -77 99 21 176 88 203 179 6 21 4 22
-70 22 -73 0 -77 -1 -111 -35 -31 -31 -41 -35 -87 -35 -33 0 -63 7 -83 19 -34
21 -64 75 -64 115 l0 26 215 0 215 0 0 28 c0 48 -30 155 -55 198 -67 113 -189
163 -315 128z m157 -157 c17 -18 35 -44 38 -59 l7 -28 -132 0 -131 0 6 23 c19
65 86 112 145 102 20 -4 49 -20 67 -38z"/>
<path d="M1906 4927 c-3 -13 -16 -29 -28 -35 -13 -6 -17 -11 -10 -11 17 -1 52
35 52 54 0 22 -7 18 -14 -8z"/>
<path d="M2141 4904 c0 -11 3 -14 6 -6 3 7 2 16 -1 19 -3 4 -6 -2 -5 -13z"/>
<path d="M1582 4873 c48 -2 129 -2 180 0 51 1 12 3 -87 3 -99 0 -141 -2 -93
-3z"/>
<path d="M2151 4870 c0 -8 4 -24 9 -35 5 -13 9 -14 9 -5 0 8 -4 24 -9 35 -5
13 -9 14 -9 5z"/>
<path d="M2307 4863 c-4 -3 -7 -11 -7 -17 0 -7 3 -6 8 1 6 10 137 13 578 16
l569 2 -571 3 c-314 1 -574 -1 -577 -5z"/>
<path d="M2321 4784 c0 -11 3 -14 6 -6 3 7 2 16 -1 19 -3 4 -6 -2 -5 -13z"/>
<path d="M2182 4760 c0 -8 4 -26 8 -40 6 -20 8 -21 8 -5 0 11 -3 29 -8 40 -5
12 -8 14 -8 5z"/>
<path d="M2336 4735 c7 -39 23 -57 43 -51 9 3 39 -3 68 -13 29 -10 50 -14 47
-9 -6 10 -108 40 -124 36 -7 -2 -19 13 -26 32 -13 32 -14 33 -8 5z"/>
<path d="M2201 4674 c0 -11 3 -14 6 -6 3 7 2 16 -1 19 -3 4 -6 -2 -5 -13z"/>
<path d="M3223 4683 c9 -2 25 -2 35 0 9 3 1 5 -18 5 -19 0 -27 -2 -17 -5z"/>
<path d="M3114 4651 c-28 -16 -59 -42 -69 -58 -17 -26 -16 -26 16 5 34 34 75
59 119 73 20 6 21 7 5 8 -11 0 -43 -12 -71 -28z"/>
<path d="M3295 4670 c27 -12 43 -12 25 0 -8 5 -22 9 -30 9 -10 0 -8 -3 5 -9z"/>
<path d="M3382 4621 c26 -23 52 -57 58 -77 7 -19 14 -33 17 -30 16 16 -55 114
-101 138 -12 6 0 -8 26 -31z"/>
<path d="M2535 4620 c47 -55 48 -56 37 -35 -6 11 -23 31 -39 45 l-28 25 30
-35z"/>
<path d="M2188 4613 c-18 -21 -51 -83 -46 -88 2 -1 17 22 35 51 33 57 35 65
11 37z"/>
<path d="M2678 4563 c6 -2 18 -2 25 0 6 3 1 5 -13 5 -14 0 -19 -2 -12 -5z"/>
<path d="M2758 4563 c23 -2 59 -2 80 0 20 2 1 4 -43 4 -44 0 -61 -2 -37 -4z"/>
<path d="M2132 4480 c0 -19 2 -27 5 -17 2 9 2 25 0 35 -3 9 -5 1 -5 -18z"/>
<path d="M3462 4480 c0 -14 2 -19 5 -12 2 6 2 18 0 25 -3 6 -5 1 -5 -13z"/>
<path d="M2131 4410 c0 -19 8 -53 18 -75 27 -61 117 -135 163 -135 7 0 -13 12
-42 28 -70 35 -110 87 -126 160 -10 47 -12 51 -13 22z"/>
<path d="M2643 4433 c9 -2 25 -2 35 0 9 3 1 5 -18 5 -19 0 -27 -2 -17 -5z"/>
<path d="M2713 4433 c9 -2 25 -2 35 0 9 3 1 5 -18 5 -19 0 -27 -2 -17 -5z"/>
<path d="M2808 4433 c7 -3 16 -2 19 1 4 3 -2 6 -13 5 -11 0 -14 -3 -6 -6z"/>
<path d="M2903 4433 c15 -2 39 -2 55 0 15 2 2 4 -28 4 -30 0 -43 -2 -27 -4z"/>
<path d="M2991 4420 c0 -8 6 -28 14 -45 17 -39 18 -21 0 25 -7 19 -14 28 -14
20z"/>
<path d="M2588 4385 c-4 -16 -9 -39 -12 -50 -4 -11 1 -5 9 14 9 18 14 41 13
50 -2 9 -7 3 -10 -14z"/>
<path d="M3456 4384 c-4 -14 -5 -28 -3 -31 3 -2 8 8 11 23 4 14 5 28 3 31 -3
2 -8 -8 -11 -23z"/>
<path d="M3020 4333 c0 -5 17 -29 37 -53 39 -45 101 -80 143 -79 16 0 9 5 -22
13 -61 16 -92 38 -128 88 -17 22 -30 37 -30 31z"/>
<path d="M3440 4333 c0 -5 -17 -29 -37 -54 -21 -24 -27 -35 -14 -24 32 27 65
75 57 82 -3 4 -6 2 -6 -4z"/>
<path d="M2526 4270 c-39 -41 -106 -69 -170 -71 -21 -1 -25 -3 -11 -6 30 -8
119 16 153 41 28 20 79 76 70 76 -2 0 -20 -18 -42 -40z"/>
<path d="M3330 4225 c-14 -8 -20 -14 -14 -15 5 0 19 7 30 15 24 18 16 19 -16
0z"/>
<path d="M3246 4202 c-3 -5 8 -6 25 -4 16 2 29 6 29 8 0 8 -49 4 -54 -4z"/>
</g>
</svg>
